<?xml version="1.0" encoding="UTF-8" standalone="no"?>
<!DOCTYPE svg PUBLIC "-//W3C//DTD SVG 1.1//EN" "http://www.w3.org/Graphics/SVG/1.1/DTD/svg11.dtd">
<svg width="100%" height="100%" viewBox="0 0 32 32" version="1.1" xmlns="http://www.w3.org/2000/svg" xmlns:xlink="http://www.w3.org/1999/xlink" xml:space="preserve" xmlns:serif="http://www.serif.com/" style="fill-rule:evenodd;clip-rule:evenodd;stroke-linejoin:round;stroke-miterlimit:2;">
    <g transform="matrix(1.01019,-0.387776,0.387776,1.01019,-6.36749,6.04135)">
        <g transform="matrix(0.0366464,-1.73472e-18,-1.73472e-18,0.0366464,-3.04409,-7.67252)">
            <path d="M852.2,498.626C852.2,449.513 832.69,402.411 797.961,367.682C763.233,332.954 716.131,313.444 667.018,313.444C575.068,313.444 464.276,313.444 372.326,313.444C323.213,313.444 276.111,332.954 241.383,367.682C206.654,402.411 187.144,449.513 187.144,498.626L187.144,793.318C187.144,842.431 206.654,889.533 241.383,924.261C276.111,958.99 323.213,978.5 372.326,978.5L667.018,978.5C716.131,978.5 763.233,958.99 797.961,924.261C832.69,889.533 852.2,842.431 852.2,793.318C852.2,701.368 852.2,590.576 852.2,498.626Z" style="fill:url(#_Linear1);"/>
            <clipPath id="_clip2">
                <path d="M852.2,498.626C852.2,449.513 832.69,402.411 797.961,367.682C763.233,332.954 716.131,313.444 667.018,313.444C575.068,313.444 464.276,313.444 372.326,313.444C323.213,313.444 276.111,332.954 241.383,367.682C206.654,402.411 187.144,449.513 187.144,498.626L187.144,793.318C187.144,842.431 206.654,889.533 241.383,924.261C276.111,958.99 323.213,978.5 372.326,978.5L667.018,978.5C716.131,978.5 763.233,958.99 797.961,924.261C832.69,889.533 852.2,842.431 852.2,793.318C852.2,701.368 852.2,590.576 852.2,498.626Z"/>
            </clipPath>
            <g clip-path="url(#_clip2)">
                <g transform="matrix(319.292,1.8017,-1.8017,319.292,-7754.33,-4795.36)">
                    <path d="M27.385,17.068L24.641,18.465L24.641,17.92L26.746,16.906L26.729,16.94L26.729,16.855L26.746,16.889L24.641,15.875L24.641,15.329L27.385,16.727L27.385,17.068Z" style="fill:rgb(184,180,238);fill-opacity:0.35;fill-rule:nonzero;"/>
                </g>
            </g>
        </g>
        <g transform="matrix(1,-5.55112e-17,5.55112e-17,1,-13.1505,4.21634)">
            <path d="M19.005,13.602L17.965,9.965L18.804,9.965L19.406,12.492L19.436,12.492L20.101,9.965L20.82,9.965L21.482,12.497L21.514,12.497L22.116,9.965L22.956,9.965L21.915,13.602L21.166,13.602L20.473,11.224L20.445,11.224L19.754,13.602L19.005,13.602Z" style="fill:white;fill-rule:nonzero;"/>
            <path d="M23.866,13.602L23.866,9.965L26.316,9.965L26.316,10.599L24.635,10.599L24.635,11.466L26.19,11.466L26.19,12.1L24.635,12.1L24.635,12.968L26.323,12.968L26.323,13.602L23.866,13.602Z" style="fill:white;fill-rule:nonzero;"/>
            <path d="M27.429,13.602L27.429,9.965L28.885,9.965C29.152,9.965 29.375,10.005 29.554,10.084C29.733,10.164 29.867,10.274 29.957,10.415C30.047,10.554 30.092,10.715 30.092,10.898C30.092,11.04 30.064,11.165 30.007,11.272C29.95,11.379 29.872,11.466 29.772,11.535C29.674,11.603 29.562,11.65 29.435,11.679L29.435,11.714C29.574,11.72 29.703,11.759 29.824,11.832C29.946,11.904 30.045,12.005 30.12,12.135C30.196,12.264 30.234,12.418 30.234,12.597C30.234,12.79 30.186,12.962 30.09,13.114C29.996,13.264 29.855,13.383 29.669,13.47C29.484,13.558 29.255,13.602 28.982,13.602L27.429,13.602ZM28.197,12.973L28.824,12.973C29.039,12.973 29.195,12.932 29.293,12.851C29.391,12.768 29.44,12.658 29.44,12.521C29.44,12.42 29.416,12.331 29.368,12.254C29.319,12.177 29.25,12.117 29.16,12.073C29.071,12.029 28.965,12.007 28.842,12.007L28.197,12.007L28.197,12.973ZM28.197,11.487L28.767,11.487C28.873,11.487 28.966,11.469 29.048,11.432C29.131,11.394 29.196,11.341 29.243,11.272C29.292,11.204 29.316,11.121 29.316,11.025C29.316,10.894 29.269,10.788 29.176,10.708C29.083,10.627 28.952,10.587 28.782,10.587L28.197,10.587L28.197,11.487Z" style="fill:white;fill-rule:nonzero;"/>
            <path d="M31.233,13.602L31.233,9.965L32.668,9.965C32.943,9.965 33.178,10.018 33.373,10.124C33.567,10.228 33.715,10.373 33.816,10.559C33.919,10.743 33.971,10.956 33.971,11.198C33.971,11.439 33.919,11.652 33.815,11.837C33.711,12.022 33.56,12.165 33.362,12.268C33.165,12.371 32.927,12.423 32.648,12.423L31.734,12.423L31.734,11.807L32.524,11.807C32.672,11.807 32.794,11.781 32.89,11.73C32.987,11.678 33.059,11.607 33.106,11.516C33.155,11.423 33.179,11.317 33.179,11.198C33.179,11.077 33.155,10.972 33.106,10.882C33.059,10.791 32.987,10.72 32.89,10.67C32.793,10.619 32.669,10.594 32.52,10.594L32.002,10.594L32.002,13.602L31.233,13.602Z" style="fill:white;fill-rule:nonzero;"/>
        </g>
    </g>
    <defs>
        <linearGradient id="_Linear1" x1="0" y1="0" x2="1" y2="0" gradientUnits="userSpaceOnUse" gradientTransform="matrix(-22.9883,-665.056,665.056,-22.9883,543.807,978.5)"><stop offset="0" style="stop-color:rgb(5,0,83);stop-opacity:1"/><stop offset="1" style="stop-color:rgb(73,61,247);stop-opacity:1"/></linearGradient>
    </defs>
</svg>
